<svg width="32" height="32" viewBox="0 0 32 32" fill="none" xmlns="http://www.w3.org/2000/svg">
<circle cx="16" cy="16" r="16" fill="#D8D8D8"/>
<mask id="mask0_554_171877" style="mask-type:alpha" maskUnits="userSpaceOnUse" x="0" y="0" width="32" height="32">
<circle cx="16" cy="16" r="16" fill="white"/>
</mask>
<g mask="url(#mask0_554_171877)">
<rect x="-0.200439" y="-0.79834" width="33.2" height="33.2" fill="#D2EFF9"/>
<mask id="mask1_554_171877" style="mask-type:alpha" maskUnits="userSpaceOnUse" x="-10" y="5" width="35" height="28">
<path fill-rule="evenodd" clip-rule="evenodd" d="M-9.60083 5.51465H24.9311V32.0033H-9.60083V5.51465Z" fill="white"/>
</mask>
<g mask="url(#mask1_554_171877)">
<path fill-rule="evenodd" clip-rule="evenodd" d="M-36.7049 35.4076C-39.2485 26.666 -30.8275 12.6621 -30.8275 12.6621L-19.9642 15.6049C-19.9642 15.6049 -17.8189 18.3271 -9.90832 22.162C-7.4461 23.3557 -5.16413 25.3589 -2.8086 29.5408C0.282139 35.028 7.03784 45.8553 7.03784 45.8553C7.03784 45.8553 8.63253 38.3801 10.7232 30.2964C11.2185 28.3823 9.08455 24.53 9.76865 20.4066C12.7613 2.37904 20.5002 5.17884 24.249 6.52152C24.7827 6.71264 25.003 7.34874 24.7012 7.83019C24.115 8.76678 26.1902 13.9248 23.5674 18.1345C21.738 21.0708 20.0282 24.3197 18.5864 28.3992C17.6446 31.0645 15.9859 45.09 14.6781 52.5734C13.7411 57.9357 11.7141 60.8005 9.5783 60.8445C6.64104 60.9046 4.29637 59.1953 2.25378 56.9867C-0.375389 54.1439 -6.54581 45.1546 -6.54581 45.1546C-6.54581 45.1546 -5.6839 78.1648 -9.86827 83.9414C-13.4808 88.9286 -33.6242 45.9948 -36.7049 35.4076Z" fill="#F8C9A8"/>
</g>
<path fill-rule="evenodd" clip-rule="evenodd" d="M17.7363 3.19261L26.7924 6.80422C27.2536 6.98801 27.5646 7.42492 27.5897 7.92196C27.6056 8.24593 27.4978 8.56389 27.2878 8.81063L13.3171 25.2381C12.7593 25.8938 11.8154 26.0565 11.0722 25.6256L2.99074 20.9413C2.73844 20.7951 2.54416 20.5661 2.44046 20.2928L2.39573 20.1748C2.22746 19.7306 2.31993 19.2292 2.63587 18.875L16.3213 3.5273C16.6766 3.12891 17.2415 2.9953 17.7363 3.19261Z" fill="white"/>
<path fill-rule="evenodd" clip-rule="evenodd" d="M3.51431 18.5661L16.5774 3.94682C16.8825 3.60537 17.3675 3.49131 17.7914 3.66156L25.8865 6.90936C26.2801 7.0674 26.4012 7.56745 26.1244 7.88935L12.6385 23.5659C12.2999 23.959 11.7331 24.0588 11.2819 23.8049L3.67172 19.52C3.32714 19.3259 3.2504 18.8614 3.51431 18.5661Z" fill="#0071CE"/>
<path fill-rule="evenodd" clip-rule="evenodd" d="M15.889 10.1692C15.8622 10.3054 15.7594 10.4155 15.6514 10.4283L13.9922 10.511C13.8408 10.5063 13.7518 10.3379 13.7947 10.1322C13.8376 9.92638 13.9959 9.76421 14.1473 9.76439L15.7544 9.90496C15.8556 9.92093 15.9155 10.0331 15.889 10.1692ZM17.4615 11.0757C17.6279 11.0093 17.7997 11.0229 17.8633 11.1039L18.8237 12.5822C18.9059 12.7425 18.737 12.9549 18.4441 13.0546C18.1551 13.1518 17.8652 13.0982 17.7901 12.9413L17.2198 11.3581C17.1959 11.2627 17.2971 11.1413 17.4615 11.0757ZM16.2832 11.02C16.4114 11.097 16.4631 11.2224 16.4062 11.3105L15.3706 12.6878C15.2579 12.8137 15.0114 12.8065 14.8196 12.6703C14.6313 12.5369 14.5719 12.3316 14.6801 12.2087L15.9175 11.0125C16.0002 10.9424 16.1569 10.9441 16.2832 11.02ZM18.5149 9.92977L20.7449 9.79428C20.9783 9.79484 21.1409 10.0017 21.1005 10.2618C21.0588 10.5221 20.831 10.7241 20.5961 10.7166L18.4139 10.5014C18.2935 10.4815 18.2196 10.358 18.246 10.2109C18.272 10.0643 18.3886 9.94499 18.5149 9.92977ZM16.2429 9.33868L15.4942 8.15517C15.4375 8.03659 15.5723 7.84698 15.8038 7.72934C16.0385 7.60983 16.2771 7.6119 16.3382 7.7316L16.8334 9.06733C16.8566 9.15433 16.7598 9.27347 16.6054 9.34394C16.4525 9.41347 16.2979 9.40896 16.2429 9.33868ZM17.6483 9.052L18.7483 7.57984C18.8731 7.43759 19.167 7.39813 19.4108 7.49753C19.6594 7.59882 19.7524 7.80121 19.6216 7.94722L18.1879 9.31865C18.0967 9.39551 17.9228 9.40228 17.7834 9.33218C17.6458 9.26303 17.5899 9.14239 17.6483 9.052Z" fill="#FDC020"/>
<path fill-rule="evenodd" clip-rule="evenodd" d="M19.35 22.5736L15.6347 16.5004C15.4635 16.1052 15.2213 15.7452 14.9203 15.4379L12.8545 13.33C12.5296 12.9985 12.001 12.9858 11.6604 13.3011C11.0526 13.8637 10.9151 14.7748 11.3293 15.4932L13.3116 18.9313L14.0009 29.1874L19.35 22.5736Z" fill="#F8C9A8"/>
<path fill-rule="evenodd" clip-rule="evenodd" d="M13.3349 26.421L13.3346 26.4214C13.2969 26.0623 13.2735 25.684 13.2664 25.2924C12.7038 25.8999 11.7947 26.0422 11.0732 25.6241L9.92282 24.9575C9.856 25.1437 9.81632 25.3407 9.79461 25.5314C9.73416 26.0625 9.80977 26.6003 9.99526 27.1017C10.3129 27.9591 10.7065 28.855 10.7658 29.4625C11.6291 29.0626 12.8326 28.9312 14.0486 29.0339C13.7121 28.4834 13.4534 27.5485 13.3349 26.421Z" fill="#FBB68E"/>
<path fill-rule="evenodd" clip-rule="evenodd" d="M13.2644 25.0378C13.2644 27.5403 13.9289 29.5691 14.7488 29.5691C15.5687 29.5691 16.2329 27.5403 16.2329 25.0378C16.2329 22.5353 15.5687 20.5063 14.7488 20.5063C13.9289 20.5063 13.2644 22.5353 13.2644 25.0378Z" fill="#F8C9A8"/>
</g>
</svg>
