<svg
    xmlns="http://www.w3.org/2000/svg"
    xmlns:xlink="http://www.w3.org/1999/xlink" width="116" height="39">
    <defs>
        <path id="a" d="M0 0h115v39H0z"/>
    </defs>
    <g fill="none" fill-rule="evenodd">
        <mask id="b" fill="#fff">
            <use xlink:href="#a"/>
        </mask>
        <path fill="#0071DC" d="M43.7 13v1.8a4 4 0 013.8-2c1.6 0 3 .9 3.5 2.3.5-.7 1-1.3 1.7-1.6.7-.5 1.5-.7 2.5-.7 2.2 0 4.3 1.5 4.3 5.5v7.5H56v-7c0-2-.7-3.1-2.1-3.1-1 0-1.8.7-2 1.5-.2.3-.2.7-.2 1v7.6h-3.5v-7.2c0-1.8-.7-3-2-3-1.2 0-1.9 1-2.2 1.7a3 3 0 00-.1 1v7.5h-3.5V13.1h3.3zm33.6 0v2.5h.1a3.8 3.8 0 013.5-2.7h.8v3.4h-1c-1.5 0-2.6.8-2.8 2.2l-.1.9v6.5h-3.6V13.1h3.1zm9.2-4.2v4h3v3.3h-3V21c0 1.6.4 2.3 1.6 2.3l1.3-.1v2.6c-.4.2-1.4.4-2.4.4-1.2 0-2.2-.4-2.9-1-.7-.8-1-2-1-3.7V8.8h3.4zM38 25.8h-3.5v-17H38v17zm-9.2-4.5v.7c-.4.8-1.3 1.6-2.4 1.6-1 0-1.7-.5-1.7-1.7 0-1.7 1.9-2.2 4-2.2v1.6zm3.4-3c0-3-1.2-5.5-5.4-5.5-2.1 0-3.8.6-4.7 1.1l.6 2.3a7 7 0 013.5-1c2.1 0 2.5 1.3 2.5 2v.2C24 17.4 21 19 21 22.3c0 2 1.5 3.8 4.1 3.8 1.6 0 3-.6 3.7-1.6h.1s.5 2.2 3.4 1.3l-.2-3v-4.6zM3.8 8.7A4315.7 4315.7 0 016.3 22c.3-1.9.8-3.6 1.3-5.9l1.7-7.3H13l1.5 7.5c.5 2.1.8 3.7 1 5.7h.1l1-5.8 1.6-7.4H22l-4.4 17c-3 .7-4-.5-4.4-2.3L12 18.2c-.3-2-.7-3.3-.9-5.2-.3 2-.6 3.3-1.1 5.2l-2 7.6c-2.8.6-3.8-.3-4.4-2.6L0 8.8h3.8zm64.7 12.5l-.1.7c-.3.8-1.2 1.6-2.3 1.6-1 0-1.8-.5-1.8-1.7 0-1.7 2-2.2 4.2-2.2v1.6zm3.4-3c0-3-1.2-5.5-5.4-5.5-2.1 0-3.8.6-4.8 1.1l.7 2.3a7 7 0 013.5-1c2.1 0 2.5 1.3 2.5 2v.2c-4.7 0-7.6 1.6-7.6 4.9 0 2 1.5 3.8 4 3.8 1.7 0 3-.6 3.8-1.6s.6 2.2 3.5 1.3l-.2-3v-4.6zm24.2 6.6c0 .6.7 1.2 1.6 1.2.9 0 1.6-.6 1.6-1.2l.1-3.7 3.8-.1c.6 0 1.2-.8 1.2-1.6 0-1-.6-1.6-1.2-1.6l-3.7-.2-.2-3.7c0-.6-.7-1.2-1.6-1.2-.9 0-1.6.6-1.6 1.2l-.1 3.7-3.8.2c-.6 0-1.2.7-1.2 1.6 0 .8.6 1.5 1.2 1.5l3.8.2.1 3.7z" mask="url(#b)"/>
        <path fill="#FFC220" d="M96.4 9l-.7-7.6c0-.8.9-1.4 2-1.4s2 .6 2 1.4L99 9c0 .5-.6.8-1.3.8-.7 0-1.3-.4-1.3-.8m9.8 16.7l6.3 4.4c.6.4 1.6 0 2.2-1 .5-1 .5-2.2-.2-2.5l-7-3.2c-.5-.2-1 0-1.4.7-.3.6-.3 1.3 0 1.6m-.2-11.3c.4.6 1 1 1.4.8l7-3.3c.7-.3.8-1.4.2-2.4-.5-1-1.5-1.5-2.2-1L106 13c-.4.3-.4 1 0 1.5M96.3 30l-.7 7.7c0 .7.9 1.4 2 1.4s2-.6 2-1.4L99 30c0-.4-.6-.8-1.3-.8-.7 0-1.3.4-1.3.8" mask="url(#b)"/>
    </g>
</svg>